{"title":"Meri Shaadi Karao 2013 DVDRIP H.264 AAC ESUBS (IcTv) Hindi","uid":8340048,"size":704824075,"categoryP":"video","categoryS":"movies","magnet":"?xt=urn:btih:0d1b3e6e7b730c2ea0683e6cea11c1f53769f03d&amp;dn=Meri+Shaadi+Karao+2013+DVDRIP+H.264+AAC+ESUBS+%28IcTv%29+Hindi&amp;tr=udp%3A%2F%2Ftracker.openbittorrent.com%3A80&amp;tr=udp%3A%2F%2Fopen.demonii.com%3A1337&amp;tr=udp%3A%2F%2Ftracker.coppersurfer.tk%3A6969&amp;tr=udp%3A%2F%2Fexodus.desync.com%3A6969","seeders":0,"leechers":1,"uploader":"SJonam","files":1,"time":1365034003,"description":" &lt;a href=&quot;http://desibbrg.org/images/66952052392581364616.gif&quot; rel=&quot;nofollow&quot; target=&quot;_NEW&quot;&gt;http://desibbrg.org/images/66952052392581364616.gif&lt;/a&gt; &lt;a href=&quot;\nhttp://desibbrg.org/images/46895671099875355728.png&quot; rel=&quot;nofollow&quot; target=&quot;_NEW&quot;&gt;\nhttp://desibbrg.org/images/46895671099875355728.png&lt;/a&gt; &lt;a href=&quot;\nhttp://desibbrg.org/images/16850487842264816260.png&quot; rel=&quot;nofollow&quot; target=&quot;_NEW&quot;&gt;\nhttp://desibbrg.org/images/16850487842264816260.png&lt;/a&gt; &lt;a href=&quot;\nhttp://desibbrg.org/images/31828228496288674845.png&quot; rel=&quot;nofollow&quot; target=&quot;_NEW&quot;&gt;\nhttp://desibbrg.org/images/31828228496288674845.png&lt;/a&gt; &lt;a href=&quot;\nhttp://desibbrg.org/images/62343554254449101897.png&quot; rel=&quot;nofollow&quot; target=&quot;_NEW&quot;&gt;\nhttp://desibbrg.org/images/62343554254449101897.png&lt;/a&gt;\n\nInfo - \nCast\nGurdeep Mehndi.... Gurdeep Radhika Vaid.... Radhika Manoj Pahwa.... Kalyan\nNikki Mehndi.... Preetam\n\nMusic Director\nDaler Mehndi Gurdeep Mehndi\n\nBanner\nMehndi Production\nParagon Entertainment Group\n\nLanguage... Hindi\n\nMedia Info - \nVideo\nID : 1\nFormat : AVC\nFormat/Info : Advanced Video Codec\nFormat profile : &lt;a class=&quot;__cf_email__&quot; href=&quot;/cdn-cgi/l/email-protection&quot; data-cfemail=&quot;d499b5bdba9498e6fae5&quot;&gt;[email&amp;#160;protected]&lt;/a&gt;&lt;script cf-hash='f9e31' type=&quot;text/javascript&quot;&gt;\n/* &lt;![CDATA[ */!function(){try{var t=&quot;currentScript&quot;in document?document.currentScript:function(){for(var t=document.getElementsByTagName(&quot;script&quot;),e=t.length;e--;)if(t[e].getAttribute(&quot;cf-hash&quot;))return t[e]}();if(t&amp;&amp;t.previousSibling){var e,r,n,i,c=t.previousSibling,a=c.getAttribute(&quot;data-cfemail&quot;);if(a){for(e=&quot;&quot;,r=parseInt(a.substr(0,2),16),n=2;a.length-n;n+=2)i=parseInt(a.substr(n,2),16)^r,e+=String.fromCharCode(i);e=document.createTextNode(e),c.parentNode.replaceChild(e,c)}}}catch(u){}}();/* ]]&gt; */&lt;/script&gt;\nFormat settings, CABAC : Yes\nFormat settings, ReFrames : 4 frames\nCodec ID : avc1\nCodec ID/Info : Advanced Video Coding\nDuration : 1h 50mn\nBit rate mode : Variable\nBit rate : 686 Kbps\nWidth : 640 pixels\nHeight : 284 pixels\nDisplay aspect ratio : 2.25:1\nFrame rate mode : Variable\nFrame rate : 23.976 fps\nMinimum frame rate : 7.992 fps\nMaximum frame rate : 23.981 fps\nColor space : YUV\nChroma subsampling : 4:2:0\nBit depth : 8 bits\nScan type : Progressive\nBits/(Pixel*Frame) : 0.157\nStream size : 542 MiB (81%)\nWriting library : x264 core 120\nColor primaries : BT.601 NTSC\nTransfer characteristics : BT.709\nMatrix coefficients : BT.601\n\nAudio\nID : 2\nFormat : AAC\nFormat/Info : Advanced Audio Codec\nFormat profile : LC\nCodec ID : 40\nDuration : 1h 50mn\nBit rate mode : Variable\nBit rate : 160 Kbps\nMaximum bit rate : 297 Kbps\nChannel(s) : 2 channels\nChannel positions : Front: L R\nSampling rate : 44.1 KHz\nCompression mode : Lossy\nDelay relative to video : 167ms\nStream size : 126 MiB (19%)\n\nRipper : Mercury\n\nSeeding 24x7... Extreme Seeding...\n\n\nEnjoy!\n","torrent":{"xt":"urn:btih:0d1b3e6e7b730c2ea0683e6cea11c1f53769f03d","amp;dn":"Meri+Shaadi+Karao+2013+DVDRIP+H.264+AAC+ESUBS+%28IcTv%29+Hindi","amp;tr":["udp%3A%2F%2Ftracker.openbittorrent.com%3A80","udp%3A%2F%2Fopen.demonii.com%3A1337","udp%3A%2F%2Ftracker.coppersurfer.tk%3A6969","udp%3A%2F%2Fexodus.desync.com%3A6969"],"infoHash":"0d1b3e6e7b730c2ea0683e6cea11c1f53769f03d","infoHashBuffer":{"type":"Buffer","data":[13,27,62,110,123,115,12,46,160,104,62,108,234,17,193,245,55,105,240,61]},"announce":[],"urlList":[]}}